<svg xmlns="http://www.w3.org/2000/svg" version="1.1" xmlns:xlink="http://www.w3.org/1999/xlink" width="1000" height="1000"><style>
    #light-icon {
      display: inline;
    }
    #dark-icon {
      display: none;
    }

    @media (prefers-color-scheme: dark) {
      #light-icon {
        display: none;
      }
      #dark-icon {
        display: inline;
      }
    }
  </style><g id="light-icon"><svg xmlns="http://www.w3.org/2000/svg" version="1.1" xmlns:xlink="http://www.w3.org/1999/xlink" width="1000" height="1000"><g><g transform="matrix(5,0,0,5,0,0)"><svg xmlns="http://www.w3.org/2000/svg" version="1.1" xmlns:xlink="http://www.w3.org/1999/xlink" width="200" height="200"><svg width="200" height="200" viewBox="0 0 200 200" fill="none" xmlns="http://www.w3.org/2000/svg">
<g clip-path="url(#clip0_529_23)">
<path d="M148.337 40.0786C149.941 38.9793 151.879 38.4757 153.815 38.655C155.752 38.8343 157.565 39.6852 158.94 41.0603C160.315 42.4354 161.166 44.2481 161.345 46.1845C161.524 48.121 161.021 50.0591 159.921 51.6633L133.364 90.6072C131.475 93.3755 130.465 96.6488 130.465 100C130.465 103.351 131.475 106.624 133.364 109.393L159.921 148.337C161.021 149.941 161.524 151.879 161.345 153.815C161.166 155.752 160.315 157.565 158.94 158.94C157.565 160.315 155.752 161.166 153.815 161.345C151.879 161.524 149.941 161.021 148.337 159.921L109.393 133.364C106.624 131.475 103.351 130.465 100 130.465C96.6489 130.465 93.3755 131.475 90.6073 133.364L51.6634 159.921C50.0591 161.021 48.121 161.524 46.1846 161.345C44.2482 161.166 42.4354 160.315 41.0603 158.94C39.6852 157.565 38.8343 155.752 38.6551 153.815C38.4758 151.879 38.9793 149.941 40.0786 148.337L66.6363 109.393C68.5249 106.624 69.5351 103.351 69.5351 100C69.5351 96.6488 68.5249 93.3755 66.6363 90.6072L40.0786 51.6633C38.9793 50.0591 38.4757 48.121 38.655 46.1845C38.8343 44.2481 39.6852 42.4354 41.0603 41.0603C42.4354 39.6852 44.2482 38.8343 46.1846 38.655C48.121 38.4757 50.0591 38.9793 51.6634 40.0786L90.6073 66.6363C93.3755 68.5249 96.6489 69.5351 100 69.5351C103.351 69.5351 106.624 68.5249 109.393 66.6363L148.337 40.0786Z" stroke="black" stroke-width="10" stroke-linecap="round" stroke-linejoin="round"></path>
</g>
<defs>
<clipPath id="clip0_529_23">
<rect width="200" height="200" fill="white"></rect>
</clipPath>
</defs>
</svg></svg></g></g></svg></g><g id="dark-icon"><svg xmlns="http://www.w3.org/2000/svg" version="1.1" xmlns:xlink="http://www.w3.org/1999/xlink" width="1000" height="1000"><g clip-path="url(#SvgjsClipPath1021)"><rect width="1000" height="1000" fill="#ffffff"></rect><g transform="matrix(3.5,0,0,3.5,150,150)"><svg xmlns="http://www.w3.org/2000/svg" version="1.1" xmlns:xlink="http://www.w3.org/1999/xlink" width="200" height="200"><svg width="200" height="200" viewBox="0 0 200 200" fill="none" xmlns="http://www.w3.org/2000/svg">
<g clip-path="url(#clip0_529_23)">
<path d="M148.337 40.0786C149.941 38.9793 151.879 38.4757 153.815 38.655C155.752 38.8343 157.565 39.6852 158.94 41.0603C160.315 42.4354 161.166 44.2481 161.345 46.1845C161.524 48.121 161.021 50.0591 159.921 51.6633L133.364 90.6072C131.475 93.3755 130.465 96.6488 130.465 100C130.465 103.351 131.475 106.624 133.364 109.393L159.921 148.337C161.021 149.941 161.524 151.879 161.345 153.815C161.166 155.752 160.315 157.565 158.94 158.94C157.565 160.315 155.752 161.166 153.815 161.345C151.879 161.524 149.941 161.021 148.337 159.921L109.393 133.364C106.624 131.475 103.351 130.465 100 130.465C96.6489 130.465 93.3755 131.475 90.6073 133.364L51.6634 159.921C50.0591 161.021 48.121 161.524 46.1846 161.345C44.2482 161.166 42.4354 160.315 41.0603 158.94C39.6852 157.565 38.8343 155.752 38.6551 153.815C38.4758 151.879 38.9793 149.941 40.0786 148.337L66.6363 109.393C68.5249 106.624 69.5351 103.351 69.5351 100C69.5351 96.6488 68.5249 93.3755 66.6363 90.6072L40.0786 51.6633C38.9793 50.0591 38.4757 48.121 38.655 46.1845C38.8343 44.2481 39.6852 42.4354 41.0603 41.0603C42.4354 39.6852 44.2482 38.8343 46.1846 38.655C48.121 38.4757 50.0591 38.9793 51.6634 40.0786L90.6073 66.6363C93.3755 68.5249 96.6489 69.5351 100 69.5351C103.351 69.5351 106.624 68.5249 109.393 66.6363L148.337 40.0786Z" stroke="black" stroke-width="10" stroke-linecap="round" stroke-linejoin="round"></path>
</g>
<defs>
<clipPath id="clip0_529_23">
<rect width="200" height="200" fill="white"></rect>
</clipPath>
<clipPath id="SvgjsClipPath1021"><rect width="1000" height="1000" x="0" y="0" rx="300" ry="300"></rect></clipPath></defs>
</svg></svg></g></g></svg></g></svg>